<svg version="1.2" xmlns="http://www.w3.org/2000/svg" viewBox="0 0 960 480" width="960" height="480">
	<title>University-of-London-logo-vector-01-svg</title>
	<style>
		.s0 { fill: #ffffff } 
		.s1 { fill: #0055a6 } 
		.s2 { fill: #e22f24 } 
		.s3 { fill: #000000 } 
		.s4 { fill: #fdbc5f } 
		.s5 { fill: #6e6f72 } 
	</style>
	<rect width="960" height="480" id="Layer 1" style="fill: #ffffff"/>
	<g id="Layer">
		<g id="Layer">
			<path id="Layer" class="s0" d="m186.4 374.9l-35.5-19.3c0 0-26.2-16.7-31.5-21.9-5.2-5.2-36.6-34.5-36.6-71.2v-157.8h103.6 103.6v157.8c0 36.7-31.5 66-36.7 71.2-5.2 5.2-31.4 21.9-31.4 21.9z"/>
			<path id="Layer" class="s1" d="m89.1 111.8h194.6v64.3h-194.6z"/>
			<path id="Layer" class="s2" d="m155.5 176.1h61.8v50.9h66c1.6 24.4 1.5 46.4-5.3 59h-60.7v64.3l-31.6 17.3-30.2-16.5v-65h-61.5c-5.6-10.7-5.2-35.1-4.9-59h66.4c0 0 0-51 0-51z"/>
			<path id="Layer" fill-rule="evenodd" class="s3" d="m285.5 110v151.1c0 15.6-5.9 40.2-34.3 68.1l-0.7 0.7c-5 5-28.7 20.3-29.8 21l-34.3 18.8-34.3-18.8c-1.1-0.7-24.8-16-29.9-21l-0.7-0.7c-28.3-28.1-34.2-52.5-34.2-68.1v-151.1zm-194.6 64.7h190.9v-61h-190.9zm190.9 86.3v-32.7h-65.9v-50.9h-59v51h-66v32.7c0 6.3 1.1 14.3 4.5 23.5h61.4v64.6l29.5 16.2 29.6-16.2v-64.6h61.4c3.4-9.1 4.5-17.1 4.5-23.6zm-190.9-83.6v48.2h63.1v-48.2zm63.1 170.3h0.1v-60.3h-57.6c4.8 11.5 13.2 24.8 27.6 39.1l0.7 0.7c4.8 4.7 29 20.3 29.2 20.5zm122.2-60.3h-57.5v60.3l0.2-0.1c0.1-0.1 24.3-15.7 29-20.4l0.7-0.7c14.5-14.3 22.9-27.5 27.6-39.1zm-57.5-61.8h63.1v-48.2h-63.1z"/>
			<g id="Layer">
				<path id="Layer" fill-rule="evenodd" class="s3" d="m214.2 267.1c0 0.9-1.3 6.4-4.1 9.1-1.1 1-2.8 1.3-4 1-1.2-0.4-2.3-0.3-2.7-0.3-0.5 0-0.5 0.8-0.5 0.8l0.3 3.7-3.5-1.9c0 0-0.8-0.2-0.9 0.2-0.1 0.4-0.6 1.4-0.7 2.6-0.2 1.3-1 2.9-2.4 3.5-3.5 1.6-9.3 1.2-10.1 0.9-0.8 0.2-6.5 0.7-9.9-1.1-1.4-0.7-2.1-2.3-2.2-3.5-0.1-1.3-0.4-2.3-0.5-2.7-0.2-0.5-1-0.3-1-0.3l-3.6 1.7 0.4-3.6c0 0 0-0.8-0.5-0.9-0.4 0-1.5-0.1-2.7 0.2-1.2 0.2-2.9-0.1-4-1.2-2.7-2.9-4-8.5-4-9.3-0.4-0.8-2.7-6-2-9.8 0.3-1.5 1.6-2.8 2.7-3.2 1.1-0.5 2-1.1 2.4-1.4 0.3-0.2-0.1-0.9-0.1-0.9l-2.7-2.9 3.9-0.6c0 0 0.8-0.3 0.6-0.7-0.1-0.4-0.3-1.4-0.9-2.5-0.7-1.1-0.9-2.8-0.1-4.2 1.8-3.5 6.7-6.4 7.6-6.7 0.5-0.7 4.8-4.4 8.6-5 1.5-0.2 3.1 0.7 3.9 1.6 0.8 1 1.7 1.6 2 1.9 0.4 0.2 0.9-0.4 0.9-0.4l1.9-3.5 1.8 3.6c0 0 0.5 0.7 0.9 0.5 0.3-0.3 1.3-0.9 2.1-1.8 0.9-0.9 2.5-1.7 4-1.4 3.9 0.7 8.4 4.5 8.8 5.2 0.9 0.3 5.8 3.2 7.6 6.7 0.6 1.4 0.3 3.1-0.4 4.2-0.6 1-0.9 2-1.1 2.4-0.1 0.5 0.6 0.8 0.6 0.8l4 0.7-2.9 2.8c0 0-0.5 0.7-0.1 0.9 0.3 0.3 1.2 1 2.3 1.5 1.2 0.5 2.3 1.8 2.5 3.3 0.5 3.9-1.7 9.2-2.2 10zm-43.7 3.2c-0.2-0.5-0.3-0.5-0.8-0.8-0.4-0.4-0.9-1-1.1-1.5-0.3-0.4-0.3-1.2-0.3-1.2l0.5-1c0 0 0.2-1-0.2-1.4-0.5-0.5-2.7-0.9-2.7-0.9 0 0 1.6-1.8 1.6-2.5 0-0.6-0.8-1.2-0.8-1.2l-1-0.4c0 0-0.5-0.6-0.6-1.1-0.1-0.5-0.1-1.3-0.1-1.8 0.1-0.6 0.2-0.7 0.1-1.3-0.3-0.5-2.6-2.2-4.6-0.8-1.9 1.4-3.2 2.5-2.8 4.1 0.4 1.6 1.7 3.6 1.9 4 0.2 0.5 2.1 1.9 2 2.3 0.3 0.3 0 3.1 0 3.6 0.2 0.5 0.5 2.9 1.3 4.3 0.7 1.5 2.4 1.5 4.8 1.3 2.4-0.2 3-3.1 2.8-3.7zm3.4-30c0 0 2.2 0.8 2.8 0.7 0.6-0.2 0.9-1.2 0.9-1.2v-1c0 0 0.5-0.7 0.9-1 0.5-0.2 1.3-0.5 1.8-0.6 0.5-0.1 0.7 0 1.1-0.3 0.4-0.4 1.4-3.2-0.5-4.6-1.9-1.4-3.4-2.3-4.8-1.4-1.4 0.9-2.9 2.7-3.3 3.1-0.3 0.3-1.1 2.5-1.6 2.5-0.1 0.4-2.9 1-3.3 1.2-0.5 0.3-2.6 1.3-3.8 2.5-1.1 1.2-0.6 2.8 0.4 5 0.8 2.2 3.8 1.9 4.3 1.6 0.4-0.4 0.3-0.6 0.6-1.1 0.2-0.4 0.6-1.2 0.9-1.5 0.4-0.4 1.2-0.7 1.2-0.7l1 0.2c0 0 1 0 1.4-0.6 0.2-0.6 0-2.8 0-2.8zm22.5 39.2c0.6-2.3-2-3.8-2.6-3.8-0.5 0-0.6 0.2-1.1 0.5-0.4 0.2-1.2 0.6-1.7 0.7-0.5 0.1-1.3-0.2-1.3-0.2l-0.8-0.7c0 0-0.8-0.6-1.4-0.3-0.6 0.3-1.6 2.2-1.6 2.2 0 0-1.3-2-1.9-2.2-0.6-0.2-1.3 0.4-1.3 0.4l-0.8 0.8c0 0-0.7 0.3-1.2 0.3-0.5 0-1.3-0.3-1.8-0.5-0.5-0.3-0.6-0.4-1.2-0.4-0.5 0-3 1.7-2.2 4 0.7 2.3 1.4 3.9 3.1 4 1.6 0.1 3.9-0.5 4.4-0.6 0.5 0 2.4-1.4 2.7-1.1 0.4-0.3 3 1 3.5 1 0.5 0 2.8 0.4 4.5 0.2 1.6-0.3 2.1-1.9 2.7-4.3zm4.9-35.7c0 0 0.8 0.2 1.2 0.5 0.4 0.3 0.9 1 1.1 1.5 0.2 0.5 0.2 0.6 0.7 1 0.5 0.3 3.5 0.3 4.2-1.9 0.8-2.3 1.1-4-0.1-5.1-1.3-1-3.6-1.9-4-2.1-0.5-0.2-2.8-0.3-3-0.7-0.4 0-1.8-2.5-2.2-2.8-0.4-0.3-2-2-3.5-2.8-1.5-0.8-3 0.3-4.8 1.8-1.8 1.6-0.6 4.3-0.2 4.6 0.6 0.3 0.7 0.2 1.2 0.3 0.5 0 1.4 0.2 1.8 0.4 0.6 0.3 1 0.9 1 0.9l0.2 1.1c0 0 0.3 0.9 1 1 0.6 0.1 2.7-0.8 2.7-0.8 0 0-0.2 2.3 0.2 2.9 0.3 0.5 1.3 0.5 1.3 0.5zm12.7 14.8c0.2-1.7-1.2-2.7-3.2-4-2.1-1.2-4.3 0.8-4.4 1.3-0.2 0.6 0 0.7 0.1 1.2 0.1 0.5 0.2 1.4 0.1 1.9-0.1 0.5-0.5 1.1-0.5 1.1l-1 0.5c0 0-0.7 0.7-0.7 1.3 0.1 0.6 1.7 2.2 1.7 2.2 0 0-2.3 0.6-2.7 1.1-0.4 0.5 0 1.4 0 1.4l0.5 0.9c0 0 0.1 0.9-0.1 1.3-0.2 0.5-0.7 1.2-1.1 1.5-0.4 0.4-0.6 0.5-0.7 1-0.1 0.5 0.7 3.4 3.1 3.4 2.4 0 4.1-0.1 4.8-1.7 0.6-1.5 0.7-3.9 0.8-4.4 0.1-0.5-0.6-2.7-0.2-3-0.2-0.4 1.8-2.5 2-2.9 0.2-0.5 1.3-2.6 1.5-4.1z"/>
				<path id="Layer" class="s0" d="m186.3 267.7c0 0-1.3 0-1.6 1.2-0.4 1.3 0.5 2.4-0.4 3.1-0.9 0.6-0.6 1.2-1.8 0.8-1.3-0.4-1.7-1-2.1-1.9-0.4-1-1.2-1.7-2.3-2.4-1-0.8-1.9-1.3-2.9-1.5-1.1 0-1.7-0.3-2.5-1.4-0.7-1-0.5-0.2 0-1.7 0.5-1.4 1.9-0.7 3-1.4 1.1-0.7 0.7-2.2 0.7-2.2 0 0-0.9-1.6-2.2-1.5-1.3 0-2 1.2-2.9 0.6-0.9-0.7-1.4-0.2-1.4-1.5-0.1-1.3 0.4-1.9 1.2-2.6 0.8-0.6 1.2-1.6 1.5-2.9 0.5-1.2 0.7-2.2 0.5-3.2-0.2-1.1-0.1-1.8 0.6-2.8 0.8-1 0.2-0.6 1.7-0.6 1.5 0.1 1.2 1.7 2.2 2.4 1.1 0.8 2.3 0.1 2.3 0.1 0 0 1.3-1.1 0.9-2.3-0.4-1.2-1.9-1.6-1.5-2.6 0.4-1.1-0.3-1.4 0.9-1.8 1.3-0.4 2-0.2 2.9 0.3 0.8 0.6 1.9 0.7 3.2 0.6 1.3 0 2.4 0 3.3-0.6 0.8-0.5 1.6-0.6 2.8-0.2 1.2 0.4 0.6-0.1 1 1.4 0.4 1.4-1.1 1.7-1.6 2.9-0.4 1.1 0.8 2.1 0.8 2.1 0 0 1.4 1.1 2.4 0.3 1.1-0.8 0.9-2.2 2.1-2.2 1.1 0 1.1-0.7 1.9 0.4 0.8 1 0.8 1.7 0.6 2.7-0.2 1 0 2.1 0.5 3.3 0.3 1.3 0.7 2.2 1.5 2.9 0.7 0.7 1.1 1.3 1.1 2.6 0 1.3 0.3 0.6-1 1.5-1.3 0.8-2-0.6-3.2-0.7-1.3 0-2.1 1.4-2.1 1.4 0 0-0.3 1.6 0.8 2.3 1 0.8 2.4 0.2 2.7 1.3 0.3 1 1 0.9 0.2 2-0.7 1-1.4 1.3-2.4 1.3-1.1 0.1-2 0.7-3 1.5-1.1 0.7-1.9 1.4-2.3 2.4-0.4 0.9-0.9 1.5-2.1 1.8-1.2 0.4-0.4 0.5-1.7-0.5-1.2-0.9 0-2-0.4-3.3-0.4-1.3-1.9-1.4-1.9-1.4z"/>
				<path id="Layer" class="s4" d="m186.3 248.6l-2.5 5.1-4.8 0.7 3.6 3.5-1.2 5.5 4.9-3.1 4.9 3.1-1.1-5.5 3.6-3.5-4.8-0.7z"/>
				<g id="Layer">
					<path id="Layer" class="s4" d="m214.7 273.7l7.7 8.9-10.2-5z"/>
					<path id="Layer" class="s4" d="m215.5 241.9l25.4-8.2-23.4 13.1z"/>
					<path id="Layer" class="s4" d="m219 254.6l26.7 2.4-26.7 2.9z"/>
					<path id="Layer" class="s4" d="m217.8 266.8l23.1 13.4-25.1-8.3z"/>
					<path id="Layer" class="s4" d="m218.2 249l8.8-0.7-8.1 4.1z"/>
					<path id="Layer" class="s4" d="m218.9 261.8l8.3 4-9-0.5z"/>
					<path id="Layer" class="s4" d="m156.7 272.7l-25.4 8.1 23.4-13.1z"/>
					<path id="Layer" class="s4" d="m153.2 260l-26.6-2.5 26.6-2.9z"/>
					<path id="Layer" class="s4" d="m154.4 247.8l-23.1-13.5 25.1 8.3z"/>
					<path id="Layer" class="s4" d="m154 265.5l-8.8 0.7 8.1-4.1z"/>
					<path id="Layer" class="s4" d="m153.3 252.8l-8.3-4 9 0.4z"/>
					<path id="Layer" class="s4" d="m200.5 286.7l8.1 25.5-13-23.4z"/>
					<path id="Layer" class="s4" d="m187.8 290.3l-2.5 26.7-2.8-26.7z"/>
					<path id="Layer" class="s4" d="m175.6 289.1l-13.5 23.1 8.3-25.1z"/>
					<path id="Layer" class="s4" d="m193.4 289.5l0.7 8.8-4.2-8.1z"/>
					<path id="Layer" class="s4" d="m180.6 290.2l-4 8.3 0.5-9.1z"/>
					<path id="Layer" class="s4" d="m163.9 282.1l-9 5.2 6.1-8.3z"/>
					<path id="Layer" class="s4" d="m159.5 277.4l-10.5 3.8 8.6-6.9z"/>
					<path id="Layer" class="s4" d="m168.8 286.1l-8.4 7.3 5-10.2z"/>
					<path id="Layer" class="s4" d="m211 279.1l5.3 9.1-8.3-6.2z"/>
					<path id="Layer" class="s4" d="m206.4 283.6l3.8 10.4-7-8.5z"/>
					<path id="Layer" class="s4" d="m208.1 232l9.1-5.2-6.2 8.3z"/>
					<path id="Layer" class="s4" d="m212.5 236.7l10.6-3.8-8.6 6.9z"/>
					<path id="Layer" class="s4" d="m203.3 228.1l8.4-7.4-5 10.2z"/>
					<path id="Layer" class="s4" d="m160.7 235.3l-5.2-9 8.3 6.1z"/>
					<path id="Layer" class="s4" d="m165.4 230.9l-3.8-10.5 6.9 8.6z"/>
					<path id="Layer" class="s4" d="m157.2 240.7l-7.9-8.9 10.2 5z"/>
				</g>
				<path id="Layer" fill-rule="evenodd" class="s4" d="m210.1 207.7l0.7 0.7-9.2 18.6c0 0-5.5-3.2-15.1-3.2-9.5 0-15.1 3.2-15.1 3.2l-9.1-18.6 0.7-0.7 2.4-1 0.4 1.1 0.3 2.4c2.7-1.7 4 3 4 3l-0.1 0.9-0.7-0.2-1.1-0.3-0.4 0.8c-0.7 2.9 3.8 4.2 4.8 4.6 1.1 0.4 1.9 0.2 3.1-0.7 1.2-0.8 0.3-4.5-0.1-4.9-0.3-0.4-0.7-0.2-0.7-0.2l-0.1 0.8-0.7 1.6-0.9-0.7-1.2-2.2 0.4-1.4 1.6-0.1c-1.7-2.9-0.5-6.5-0.5-6.5 3.5-0.1 3.9 4 3.9 4l0.9-0.9 1 0.9 0.5 2 0.1 1.3h-0.6l-0.9-0.3c0 0-0.4-1.2-0.4 0.8 0 2 1.2 3.2 2.1 3.7 0.9 0.4 3-0.2 3-0.2l1.5-1.1c0 0 0.4-1.4 0.3-2.3 0-0.9 0-1.5 0-1.5l-0.7-0.2-1.3 0.3-1.3 1v-1.5l-0.2-1.4-0.5-2.6-0.1-2.5 1.3 0.4 1.6-0.3 1.2-0.5-0.2-0.7-0.7-0.5-0.7-0.1c-14.2 0.2-21.7 4.9-21.7 4.9l0.2-2c8.1-5.6 21.6-5.8 21.6-5.8v-1c-14.6 0.6-20.8 5.1-20.8 5.1l0.6-1.9c9.4-7 21.2-5.9 21.2-5.9 0.3-0.6 1.4-0.7 1.4-0.7v-1.2l-0.5-0.5-0.9-1.3-2.6 0.7v-3.7l2.6 0.2-0.4-2.4 2.6 0.4 2.6-0.4-0.4 2.4 2.6-0.2v3.7l-2.6-0.7-0.9 1.3-0.5 0.5v1.2c0 0 1.1 0.1 1.4 0.7 0 0 11.8-1.1 21.3 5.9l0.6 1.9c0 0-6.3-4.5-20.8-5.1l-0.1 1c0 0 13.5 0.2 21.6 5.8l0.3 2c0 0-7.6-4.7-21.7-4.9l-0.7 0.1-0.7 0.5-0.3 0.7 1.2 0.5 1.7 0.3 1.2-0.4v2.5l-0.5 2.6-0.2 1.4v1.5l-1.3-1-1.4-0.3-0.5 0.2c0 0 0 0.6-0.2 1.5 0 0.9 0.4 2.3 0.4 2.3l1.5 1.1c0 0 2.1 0.6 2.9 0.2 0.9-0.5 2.2-1.7 2.2-3.7 0-2-0.5-0.8-0.5-0.8l-0.9 0.3h-0.6l0.1-1.3 0.5-2 1.1-0.9 0.8 0.9c0 0 0.5-4.1 4-4 0 0 1.1 3.6-0.5 6.5l1.5 0.1 0.5 1.4-1.2 2.2-1 0.7-0.7-1.6-0.1-0.8c0 0-0.3-0.2-0.7 0.2-0.4 0.4-1.3 4.1-0.1 4.9 1.2 0.9 2 1.2 3.1 0.7 1-0.4 5.5-1.7 4.8-4.6l-0.3-0.8-1.2 0.3-0.7 0.2v-0.9c0 0 1.2-4.7 3.9-3l0.3-2.4 0.4-1.1zm-21.2-11.9q0 0 0 0 0 0 0 0zm0 0c0 0.1 0 0.2 0.1 0.2-0.1-0.1-0.1-0.1-0.1-0.2zm-11.2 26.5c-0.3-0.7-1.6-1-2.9-0.4-1.4 0.5-2.2 1.6-1.9 2.4 0.4 0.8 1.7 1 3 0.4 1.3-0.5 2.1-1.5 1.8-2.4zm11.7-3.1c0-0.8-1.2-1.5-2.6-1.5-1.4 0-2.6 0.7-2.6 1.5 0 0.9 1.1 1.6 2.6 1.6 1.4 0 2.6-0.7 2.6-1.6zm7 2.4c-1.3-0.7-2.6-0.6-3 0.2-0.4 0.7 0.4 1.9 1.7 2.5 1.2 0.6 2.6 0.5 3-0.2 0.3-0.8-0.4-1.9-1.7-2.5z"/>
			</g>
			<g id="Layer">
				<path id="Layer" class="s3" d="m266 148.3c-1-0.7-1.7-2.4-1.9-3-0.4-1.1-1.9-1.9-3.3-0.7-0.3 0.2-0.5 0.5-0.7 0.7-0.6 0.6-0.8 0.8-1.5 0.8h-3.5-6.5v-7.2c2.4 0 9.1 0 10 0 0.7 0 1.1 0.4 2 1.3l0.3 0.2q0.7 0.7 1.5 0.7c1 0 1.6-0.7 1.7-1.5 0.2-0.5 0.8-2.2 1.8-2.8 1.5-0.8 1.7-2.3 1.6-3.2q0-0.2 0-0.4-0.1-1-1.5-2c-1-0.7-1.7-2.4-1.9-3-0.4-1.1-2-1.9-3.3-0.7-0.3 0.2-0.5 0.4-0.7 0.7-0.6 0.6-0.8 0.8-1.6 0.8h-3.5-6.5v-2.7l-0.1-0.9c0-0.5-0.3-0.8-0.7-1 0 0-0.6-0.3-1.7-1.5-1.5-1.8-3-2.6-3.1-2.6-0.3-0.1-0.6 0-0.8 0.1l-3.1-3.3c0-0.4-0.3-0.8-0.6-1-0.4-0.2-0.9-0.1-1.2 0.2-1.3 1.1-2 1.7-2.1 1.9-0.6 0.5-4.7 2.7-11.4 2.7-3.1 0-6.4-0.5-9.8-1.3-2.5-0.7-5.1-1-7.7-1-10.1 0-17.6 4.7-19.1 5.6-1.5-0.9-9.1-5.6-19.1-5.6-2.7 0-5.3 0.3-7.8 1-3.4 0.8-6.7 1.3-9.8 1.3-6.7 0-10.7-2.2-11.2-2.6-0.2-0.2-1-0.9-2.3-2-0.3-0.3-0.7-0.3-1.1-0.2-0.3 0.2-0.5 0.5-0.6 0.8l-3.3 3.6c-0.3-0.1-0.6-0.2-0.9-0.1-0.1 0-1.4 0.8-2.9 2.6-1 1.2-1.6 1.5-1.6 1.5-0.5 0.2-0.8 0.5-0.8 1v3.6h-6.6-3.6c-0.7 0-0.9-0.2-1.5-0.8-0.2-0.3-0.4-0.5-0.7-0.8-1.4-1.2-2.9-0.4-3.3 0.7-0.1 0.5-0.9 2.3-1.9 3-1 0.7-1.5 1.4-1.6 2q0 0.2 0.1 0.4c-0.1 0.9 0.1 2.4 1.5 3.2 1.1 0.6 1.7 2.2 1.8 2.8 0.2 0.8 0.8 1.5 1.7 1.5 0.5 0 1.1-0.2 1.6-0.7l0.2-0.2c1-1 1.4-1.3 2.1-1.3 1-0.1 7.7 0 10 0v7.2h-6.5-3.5c-0.7 0-0.9-0.2-1.5-0.8-0.2-0.2-0.4-0.5-0.7-0.7-1.4-1.2-2.9-0.4-3.3 0.7-0.2 0.6-0.9 2.3-1.9 3-1 0.7-1.5 1.4-1.6 2q0 0.2 0.1 0.4c-0.1 0.9 0.1 2.4 1.5 3.2 1.1 0.6 1.7 2.3 1.8 2.8 0.2 0.8 0.8 1.6 1.7 1.6 0.6 0 1.1-0.3 1.6-0.8l0.3-0.2c0.9-1 1.3-1.2 2-1.3 1 0 7.5 0 9.9 0l-0.1 9c0 0.3 0.2 0.6 0.4 0.8 0.2 0.2 0.4 0.4 0.7 0.3l51-0.9q-0.3 0.8-0.3 1.8c0.1 1.7 1.2 4.4 7.2 4.4 1.1 0 2-0.2 2-0.2h1.2c0 0 1 0.2 2.2 0.2 6 0 7-2.7 7.2-4.4 0-0.7-0.1-1.3-0.3-1.8l50.9 0.9c0.3 0.1 0.6-0.1 0.8-0.3 0.3-0.2 0.4-0.5 0.4-0.8l-0.1-9c2.4 0 9 0 10 0 0.6 0.1 1 0.3 2 1.3l0.2 0.2c0.6 0.5 1.1 0.8 1.6 0.8 1 0 1.6-0.8 1.7-1.5 0.1-0.6 0.8-2.3 1.8-2.9 1.5-0.8 1.7-2.3 1.6-3.2 0-0.1 0-0.3 0-0.4q-0.1-1-1.5-2z"/>
				<path id="Layer" class="s4" d="m239.2 152c0 0.4-0.3 0.8-0.6 1l-1 0.5c-0.2 0.1-2.9 1.9-12.1 1.9-3.6 0-7.8-0.3-12.4-0.8-3.5-0.4-6.7-0.6-9.5-0.6-3.3 0-8.9 0.8-10.8 1.9-3.8 2.1-2.8 2.6-4.8 4.1q-0.3 0.3-0.7 0.3-0.1 0-0.3-0.1-0.1 0.1-0.3 0.1-0.4 0-0.6-0.3c-2-1.4-0.9-2.1-5.2-4.3-2.7-1.3-7.1-1.8-10.5-1.8-2.8 0-5.9 0.2-9.5 0.7-4.6 0.5-8.8 0.8-12.4 0.8-9.2 0-11.9-1.8-12.2-2l-0.8-0.4c-0.4-0.2-0.6-0.6-0.6-1l0.1-32.8-2.7 3-0.1 19.1-0.1 13.5c0.7 0.8 4.1 4.3 14.9 4.3 4 0 9.8-0.4 15-1.2 4.6-0.7 8.6-1 11.9-1 8.4 0 9.9 1.3 10.2 1.8 0.3 0.4 0.3 0.8 0.1 1.3l-0.3 0.9c-0.2 0.3-0.8 1.3 0.1 3.2 0.5 1 1.6 1.3 2.4 1.4 0.1 0 0.1 0 0.2 0h0.8 0.1c1 0 2.1-0.4 2.6-1.4 0.8-1.9 0.2-2.9 0.2-3l-0.5-1.1c-0.2-0.4-0.1-0.9 0.1-1.2 0.4-0.5 1.8-1.9 10.2-1.9 3.3 0 7.3 0.3 11.8 1 5.2 0.8 10 1.2 14 1.2 10.7 0 14.9-3.5 15.7-4.2l-0.1-32.8-2.5-2.7z"/>
				<path id="Layer" class="s0" d="m182 154.5c0.4 0.1 1.2 0.6 4.5 2.5v-31.1c-2.7-1.1-9.7-5.2-18.5-5.2-2.5 0-4.9 0.3-7.2 0.9-3.6 1-7.1 1.4-10.4 1.4-7.8 0-13.2-2.7-13.6-3.4-0.1-0.1-0.1-0.1-0.1-0.1l-0.2 32.5 0.4 0.2c0.2 0.1 3.3 1.7 11.7 1.7 3.6 0 7.7-0.3 12.2-0.8 10-1.2 17.4-0.7 21.2 1.4z"/>
				<path id="Layer" class="s4" d="m107.9 150.5q0 0.2 0 0.5c0 0.1-0.1 0.8 0.5 1.1 1.8 1 2.7 3.1 3 4.2l0.1-0.1c1.2-1.1 2.1-2 3.7-2 1-0.1 7.4-0.1 10.2 0l0.1-2.8v-3.3h-6.2-4c-1.8 0-2.6-0.9-3.3-1.6q-0.3-0.3-0.6-0.5c-0.3 0.8-1.2 2.9-2.8 4-0.4 0.2-0.6 0.4-0.7 0.5z"/>
				<path id="Layer" class="s4" d="m107.9 133.5q0 0.1 0 0.4c0 0.1-0.1 0.7 0.6 1.1 1.7 1 2.6 3.1 2.9 4.1 1.2-1.1 2.2-2 3.8-2.1 1.1 0 7.7 0 10.5 0l0.1-2.8v-3.3h-6.5-3.9c-1.9 0-2.7-0.9-3.4-1.6q-0.2-0.3-0.5-0.5c-0.4 0.8-1.3 2.9-2.9 4.1-0.4 0.2-0.6 0.4-0.7 0.6z"/>
				<path id="Layer" class="s5" d="m179.1 133.3c-4.6-2.1-10.4-4.8-19.1-2.5-5.4 1.5-12.7 2.4-16.6 0.6l0.8-2c2.9 1.3 8.8 1 15.2-0.7 9.5-2.4 15.9 0.5 20.5 2.6z"/>
				<path id="Layer" class="s5" d="m179.1 142.4c-4.6-2.1-10.4-4.7-19.1-2.4-5.4 1.4-12.7 2.3-16.6 0.6l0.8-2c2.9 1.2 8.8 0.9 15.2-0.7 9.5-2.5 15.9 0.4 20.5 2.5z"/>
				<path id="Layer" class="s5" d="m179.1 150.1c-4.6-2.1-10.4-4.8-19.1-2.5-5.4 1.5-12.7 2.4-16.6 0.7l0.8-2.1c2.9 1.3 8.8 1 15.2-0.7 9.5-2.4 15.9 0.5 20.5 2.6z"/>
				<path id="Layer" class="s0" d="m187.7 125.9v31.1c3.3-1.9 4-2.4 4.4-2.5 4-2.1 11.3-2.6 21.3-1.4 4.5 0.5 8.6 0.8 12.1 0.8 8.5 0 11.5-2.1 11.5-2.1l0.5-0.3-0.2-32.5q0 0.1-0.1 0.1c-0.4 0.7-5.7 4-13.5 4-3.2 0-6.8-0.5-10.3-1.4-2.4-0.6-4.8-1-7.2-1-9.8 0-18.5 5.2-18.5 5.2z"/>
				<path id="Layer" class="s4" d="m255.1 154.1c1.8 0 3.3 0 3.8 0 1.6 0.1 2.5 0.9 3.7 2l0.1 0.1c0.4-1 1.2-3.1 3-4.1 0.6-0.4 0.5-1.2 0.5-1.2q-0.1-0.2 0-0.4c-0.1-0.1-0.3-0.3-0.7-0.6-1.6-1.1-2.5-3.2-2.8-4-0.2 0.2-0.4 0.3-0.5 0.5-0.8 0.8-1.6 1.6-3.4 1.6h-3.9-6.2v6.1c1.6 0 3.9 0 6.4 0z"/>
				<path id="Layer" class="s4" d="m255.1 137c1.8 0 3.3 0 3.8 0 1.6 0.1 2.6 1 3.8 2.1 0.3-1 1.2-3.1 2.9-4.1 0.7-0.3 0.6-1 0.6-1.2q-0.1-0.2 0-0.3c-0.1-0.2-0.3-0.4-0.7-0.6-1.6-1.2-2.5-3.3-2.9-4.1-0.2 0.2-0.3 0.4-0.5 0.5-0.7 0.8-1.5 1.6-3.4 1.6h-3.9-6.4v6.1c1.7 0 4.2 0 6.7 0z"/>
				<path id="Layer" class="s0" d="m187.7 169.1c0.2 0 1 0.1 2 0.1 1.8 0 4.9-0.3 5-2.3 0.1-1.1-0.9-1.9-0.9-1.9-0.4-0.3-0.5-0.8-0.3-1.3 0.1-0.4 0.5-0.7 1-0.7l52.5 0.9-0.2-37.7c-0.4-0.3-1.6-0.9-2.4-1.8-0.5-0.5-1.1-1-1.6-1.3l0.1 32.1q0 0.3-0.1 0.6c-0.3 0.5-3.2 4.7-16.8 4.7-4.2 0-9-0.4-14.3-1.2-4.4-0.7-8.3-1-11.6-1-5.2 0-7.5 0.9-8.4 1.4 0.4 0.5 1 2.3-0.1 4.5-0.7 1.6-2.4 2.5-4.4 2.5-2.3 0-3.9-0.9-4.7-2.5-1-2-0.6-3.7-0.1-4.5-0.8-0.5-3.1-1.4-8.4-1.4-3.2 0-7.1 0.3-11.6 1q-7.9 1.2-14.3 1.2c-13.6 0-16.9-4.2-17.2-4.7q-0.1-0.2-0.1-0.6l0.1-32c-0.6 0.3-0.7 0.7-1.2 1.2-0.8 1-2.1 1.5-2.5 1.8l-0.1 0.4-0.1 37.3 52.6-0.9c0.4 0 0.9 0.3 1 0.7 0.2 0.5 0 1-0.3 1.3 0 0-1 0.8-0.9 1.9 0.1 2 3.2 2.3 4.9 2.3 1.1 0 1.9-0.1 1.9-0.1z"/>
				<path id="Layer" class="s5" d="m195 133.3l-0.9-2c4.7-2.1 11.1-5 20.6-2.6 6.3 1.7 12.3 2 15.2 0.7l0.8 2c-4 1.8-11.2 0.9-16.6-0.6-8.7-2.3-14.5 0.4-19.1 2.5z"/>
				<path id="Layer" class="s5" d="m195 142.4l-0.9-2c4.7-2.1 11.1-5 20.6-2.5 6.3 1.6 12.3 1.9 15.2 0.7l0.8 2c-4 1.7-11.2 0.8-16.6-0.6-8.7-2.3-14.5 0.3-19.1 2.4z"/>
				<path id="Layer" class="s5" d="m195 150.1l-0.9-2c4.7-2.1 11.1-5 20.6-2.6 6.3 1.7 12.3 2 15.2 0.7l0.8 2.1c-4 1.7-11.2 0.8-16.6-0.7-8.7-2.3-14.5 0.4-19.1 2.5z"/>
			</g>
		</g>
		<path id="Layer" fill-rule="evenodd" class="s3" d="m469.4 113.7v68.2h-13.1l-33.8-45.6v45.6h-14.1v-68.2h14.3l32.7 44.1v-44.1zm191.4 103.5v68.2h-13.2l-33.8-45.6v45.6h-14.1v-68.2h14.3l32.7 44.2v-44.2zm-179.5-103.5h14.1v68.2h-14.1zm87.6 0.1l-29.2 68.6h-10.5l-28-68.6h15.6l18.6 48.8 19.1-48.8zm164.6-0.1h14.2v68.1h-14.2zm-8.3 49c0 12.5-10.2 20.2-24.2 20.2-8.3 0-15-1.7-19.9-4.5v-13.2c4.8 3 13.3 6.1 19.2 6.1 5 0 9.9-1.7 9.9-6.8 0-9-16.6-10.6-24.9-20-2.6-3-4.3-6.8-4.3-12.1 0-10.3 8.2-19.4 23.2-19.4 7.2 0 13.1 1.8 17 4.1v12.2c-5.8-3.1-10.7-4.9-16.3-4.9-5.1 0-9 2.3-9 6.2 0 11.8 29.3 10.7 29.3 32.1zm79.2-37.4h-16.9v56.6h-14.3v-56.6h-18.5v-11.6h53zm-469.6 126.8c0-20.4 14.5-35.5 35.2-35.5 22.1 0 35.1 15 35.1 34.7 0 19.8-14.3 35.2-35.1 35.2-21.9 0-35.2-14.4-35.2-34.4zm14.8-0.4c0 14.9 8.6 23.5 20.4 23.5 11.6 0 20.1-8.6 20.1-23.5 0-14.7-8.3-23.5-20.1-23.5-11.9 0-20.4 8.5-20.4 23.5zm389.6 0.4c0-20.4 14.6-35.5 35.2-35.5 22.1 0 35.2 15 35.2 34.7 0 19.8-14.3 35.2-35.2 35.2-21.8 0-35.1-14.4-35.2-34.4zm14.8-0.4c0 14.9 8.6 23.5 20.4 23.5 11.6 0 20.2-8.6 20.2-23.5 0-14.7-8.4-23.5-20.2-23.5-11.8 0-20.4 8.5-20.4 23.5zm-233.5 0.4c0-20.4 14.5-35.5 35.2-35.5 22.1 0 35.1 15 35.1 34.7 0 19.8-14.3 35.2-35.1 35.2-21.9 0-35.2-14.4-35.2-34.4zm14.8-0.4c0 14.9 8.6 23.5 20.4 23.5 11.6 0 20.1-8.6 20.1-23.5 0-14.7-8.3-23.5-20.1-23.5-11.8 0-20.4 8.5-20.4 23.5zm-54.1 33.8v-68.2h14v56.5h24v11.7zm398.3-68.2v68.2h-13.1l-33.8-45.6v45.6h-14.1v-68.2h14.2l32.7 44.2v-44.2zm-206.9 68.2v-68.2h22.7c24.3 0 37.9 13.2 37.9 33.5 0 21-15.6 34.7-39.2 34.7zm14.2-56.4v44.7h7.8c16.8 0 23.5-10.7 23.5-22.5 0-13.5-8.1-22.2-23.7-22.2zm-41.1-73.2h-7.2v26h-14.2v-68.2h21.1c18.1 0 24.8 8 24.8 20.5 0 7.9-3.8 14.4-11.2 18.2l17.4 29.5h-15.7zm-7.2-30.3v19.2h7.2c6.6 0 10.5-4.2 10.5-9.9 0-5.2-3.9-9.3-10.5-9.3 0 0-7.2 0-7.2 0zm231.9-11.7l-22.4 41.3v26.8h-14.2v-27l-22.4-41.2h15.6l14.4 29.1 14.2-29.1c0 0.1 14.8 0.1 14.8 0.1zm-473.9-0.1v42.2c0 20.1-12.5 27-29.4 27-16.9 0-29.3-6.9-29.3-27v-42.2h14v41.3c0 11.5 6.3 16 15.3 16 9.1 0 15.3-4.4 15.3-16v-41.3zm178.2 68.2v-68.2h39.5l-3.7 11.6h-21.6v15.9h21.7v11.7h-21.7v17.4h25.2v11.6zm-125.5 74.8h-21.5v28.8h-14.2v-68.3h39.6l-3.6 11.7h-21.8v16.2h21.5z"/>
	</g>
</svg>